<mxfile host="app.diagrams.net" agent="Mozilla/5.0 (Windows NT 10.0; Win64; x64) AppleWebKit/537.36 (KHTML, like Gecko) Chrome/131.0.0.0 Safari/537.36 Edg/131.0.0.0" version="26.0.3">
  <diagram name="Page-1" id="O8KYYocnjVQhIGdDs-K7">
    <mxGraphModel dx="2722" dy="1027" grid="1" gridSize="10" guides="1" tooltips="1" connect="1" arrows="1" fold="1" page="1" pageScale="1" pageWidth="827" pageHeight="1169" math="0" shadow="0">
      <root>
        <mxCell id="0" />
        <mxCell id="1" parent="0" />
        <mxCell id="8NmhvUqBQo3J2bWAmBWH-1" value="Root" style="rounded=0;whiteSpace=wrap;html=1;" vertex="1" parent="1">
          <mxGeometry x="480" width="150" height="40" as="geometry" />
        </mxCell>
        <mxCell id="8NmhvUqBQo3J2bWAmBWH-2" value="Payment System" style="rounded=0;whiteSpace=wrap;html=1;" vertex="1" parent="1">
          <mxGeometry x="470" y="100" width="170" height="40" as="geometry" />
        </mxCell>
        <mxCell id="8NmhvUqBQo3J2bWAmBWH-3" value="Price Management" style="rounded=0;whiteSpace=wrap;html=1;" vertex="1" parent="1">
          <mxGeometry x="30" y="280" width="130" height="40" as="geometry" />
        </mxCell>
        <mxCell id="8NmhvUqBQo3J2bWAmBWH-4" value="Payment Management" style="rounded=0;whiteSpace=wrap;html=1;" vertex="1" parent="1">
          <mxGeometry x="320" y="280" width="130" height="40" as="geometry" />
        </mxCell>
        <mxCell id="8NmhvUqBQo3J2bWAmBWH-5" value="Transaction Management" style="rounded=0;whiteSpace=wrap;html=1;" vertex="1" parent="1">
          <mxGeometry x="630" y="280" width="140" height="40" as="geometry" />
        </mxCell>
        <mxCell id="8NmhvUqBQo3J2bWAmBWH-6" value="Receipt Management" style="rounded=0;whiteSpace=wrap;html=1;" vertex="1" parent="1">
          <mxGeometry x="950" y="280" width="130" height="40" as="geometry" />
        </mxCell>
        <mxCell id="8NmhvUqBQo3J2bWAmBWH-7" value="Price Comparison" style="rounded=0;whiteSpace=wrap;html=1;" vertex="1" parent="1">
          <mxGeometry x="-70" y="420" width="130" height="40" as="geometry" />
        </mxCell>
        <mxCell id="8NmhvUqBQo3J2bWAmBWH-8" value="Price Validation" style="rounded=0;whiteSpace=wrap;html=1;" vertex="1" parent="1">
          <mxGeometry x="90" y="420" width="130" height="40" as="geometry" />
        </mxCell>
        <mxCell id="8NmhvUqBQo3J2bWAmBWH-9" value="" style="endArrow=none;html=1;rounded=0;exitX=0.5;exitY=1;exitDx=0;exitDy=0;entryX=0.5;entryY=0;entryDx=0;entryDy=0;endFill=0;" edge="1" parent="1" source="8NmhvUqBQo3J2bWAmBWH-3" target="8NmhvUqBQo3J2bWAmBWH-8">
          <mxGeometry width="50" height="50" relative="1" as="geometry">
            <mxPoint x="200" y="310" as="sourcePoint" />
            <mxPoint x="250" y="260" as="targetPoint" />
          </mxGeometry>
        </mxCell>
        <mxCell id="8NmhvUqBQo3J2bWAmBWH-10" value="" style="endArrow=none;html=1;rounded=0;exitX=0.5;exitY=1;exitDx=0;exitDy=0;entryX=0.692;entryY=-0.05;entryDx=0;entryDy=0;entryPerimeter=0;endFill=0;" edge="1" parent="1" source="8NmhvUqBQo3J2bWAmBWH-3" target="8NmhvUqBQo3J2bWAmBWH-7">
          <mxGeometry width="50" height="50" relative="1" as="geometry">
            <mxPoint x="200" y="310" as="sourcePoint" />
            <mxPoint x="250" y="260" as="targetPoint" />
          </mxGeometry>
        </mxCell>
        <mxCell id="8NmhvUqBQo3J2bWAmBWH-11" value="Price Info" style="rounded=0;whiteSpace=wrap;html=1;" vertex="1" parent="1">
          <mxGeometry x="-150" y="520" width="130" height="40" as="geometry" />
        </mxCell>
        <mxCell id="8NmhvUqBQo3J2bWAmBWH-12" value="Update price data" style="rounded=0;whiteSpace=wrap;html=1;" vertex="1" parent="1">
          <mxGeometry x="20" y="520" width="130" height="40" as="geometry" />
        </mxCell>
        <mxCell id="8NmhvUqBQo3J2bWAmBWH-13" value="" style="endArrow=none;html=1;rounded=0;entryX=0.133;entryY=-0.05;entryDx=0;entryDy=0;entryPerimeter=0;endFill=0;" edge="1" parent="1" target="8NmhvUqBQo3J2bWAmBWH-12">
          <mxGeometry width="50" height="50" relative="1" as="geometry">
            <mxPoint x="-5" y="460" as="sourcePoint" />
            <mxPoint x="220" y="270" as="targetPoint" />
          </mxGeometry>
        </mxCell>
        <mxCell id="8NmhvUqBQo3J2bWAmBWH-14" value="" style="endArrow=none;html=1;rounded=0;exitX=0.5;exitY=1;exitDx=0;exitDy=0;entryX=0.579;entryY=0.017;entryDx=0;entryDy=0;entryPerimeter=0;endFill=0;" edge="1" parent="1" source="8NmhvUqBQo3J2bWAmBWH-7" target="8NmhvUqBQo3J2bWAmBWH-11">
          <mxGeometry width="50" height="50" relative="1" as="geometry">
            <mxPoint x="-190" y="530" as="sourcePoint" />
            <mxPoint x="-140" y="480" as="targetPoint" />
          </mxGeometry>
        </mxCell>
        <mxCell id="8NmhvUqBQo3J2bWAmBWH-15" value="Payment Validation" style="rounded=0;whiteSpace=wrap;html=1;" vertex="1" parent="1">
          <mxGeometry x="240" y="570" width="130" height="40" as="geometry" />
        </mxCell>
        <mxCell id="8NmhvUqBQo3J2bWAmBWH-16" value="Payment Process" style="rounded=0;whiteSpace=wrap;html=1;" vertex="1" parent="1">
          <mxGeometry x="440" y="570" width="130" height="40" as="geometry" />
        </mxCell>
        <mxCell id="8NmhvUqBQo3J2bWAmBWH-17" value="" style="endArrow=none;html=1;rounded=0;exitX=0.451;exitY=1.017;exitDx=0;exitDy=0;exitPerimeter=0;entryX=0.5;entryY=0;entryDx=0;entryDy=0;endFill=0;" edge="1" parent="1" source="8NmhvUqBQo3J2bWAmBWH-4" target="8NmhvUqBQo3J2bWAmBWH-15">
          <mxGeometry width="50" height="50" relative="1" as="geometry">
            <mxPoint x="370" y="380" as="sourcePoint" />
            <mxPoint x="420" y="330" as="targetPoint" />
          </mxGeometry>
        </mxCell>
        <mxCell id="8NmhvUqBQo3J2bWAmBWH-18" value="" style="endArrow=none;html=1;rounded=0;exitX=0.451;exitY=1.05;exitDx=0;exitDy=0;exitPerimeter=0;entryX=0.4;entryY=-0.017;entryDx=0;entryDy=0;entryPerimeter=0;endFill=0;" edge="1" parent="1" source="8NmhvUqBQo3J2bWAmBWH-4" target="8NmhvUqBQo3J2bWAmBWH-16">
          <mxGeometry width="50" height="50" relative="1" as="geometry">
            <mxPoint x="270" y="440" as="sourcePoint" />
            <mxPoint x="320" y="390" as="targetPoint" />
          </mxGeometry>
        </mxCell>
        <mxCell id="8NmhvUqBQo3J2bWAmBWH-19" value="Payment Authorization" style="rounded=0;whiteSpace=wrap;html=1;" vertex="1" parent="1">
          <mxGeometry x="340" y="690" width="130" height="40" as="geometry" />
        </mxCell>
        <mxCell id="8NmhvUqBQo3J2bWAmBWH-20" value="Send failure" style="rounded=0;whiteSpace=wrap;html=1;" vertex="1" parent="1">
          <mxGeometry x="510" y="690" width="130" height="40" as="geometry" />
        </mxCell>
        <mxCell id="8NmhvUqBQo3J2bWAmBWH-21" value="" style="rhombus;whiteSpace=wrap;html=1;" vertex="1" parent="1">
          <mxGeometry x="365" y="730" width="80" height="80" as="geometry" />
        </mxCell>
        <mxCell id="8NmhvUqBQo3J2bWAmBWH-22" value="Payment Success" style="rounded=0;whiteSpace=wrap;html=1;" vertex="1" parent="1">
          <mxGeometry x="240" y="880" width="130" height="40" as="geometry" />
        </mxCell>
        <mxCell id="8NmhvUqBQo3J2bWAmBWH-23" value="Rejected Payment" style="rounded=0;whiteSpace=wrap;html=1;" vertex="1" parent="1">
          <mxGeometry x="440" y="880" width="130" height="40" as="geometry" />
        </mxCell>
        <mxCell id="8NmhvUqBQo3J2bWAmBWH-24" value="" style="endArrow=none;html=1;rounded=0;entryX=0.61;entryY=-0.033;entryDx=0;entryDy=0;entryPerimeter=0;exitX=0.5;exitY=1;exitDx=0;exitDy=0;endFill=0;" edge="1" parent="1" source="8NmhvUqBQo3J2bWAmBWH-21" target="8NmhvUqBQo3J2bWAmBWH-22">
          <mxGeometry width="50" height="50" relative="1" as="geometry">
            <mxPoint x="407" y="860" as="sourcePoint" />
            <mxPoint x="330" y="810" as="targetPoint" />
          </mxGeometry>
        </mxCell>
        <mxCell id="8NmhvUqBQo3J2bWAmBWH-25" value="" style="endArrow=none;html=1;rounded=0;exitX=0.5;exitY=1;exitDx=0;exitDy=0;entryX=0.25;entryY=0;entryDx=0;entryDy=0;endFill=0;" edge="1" parent="1" source="8NmhvUqBQo3J2bWAmBWH-21" target="8NmhvUqBQo3J2bWAmBWH-23">
          <mxGeometry width="50" height="50" relative="1" as="geometry">
            <mxPoint x="270" y="870" as="sourcePoint" />
            <mxPoint x="320" y="820" as="targetPoint" />
          </mxGeometry>
        </mxCell>
        <mxCell id="8NmhvUqBQo3J2bWAmBWH-26" value="" style="endArrow=none;html=1;rounded=0;exitX=0.5;exitY=1;exitDx=0;exitDy=0;endFill=0;" edge="1" parent="1" source="8NmhvUqBQo3J2bWAmBWH-16" target="8NmhvUqBQo3J2bWAmBWH-19">
          <mxGeometry width="50" height="50" relative="1" as="geometry">
            <mxPoint x="420" y="690" as="sourcePoint" />
            <mxPoint x="470" y="640" as="targetPoint" />
          </mxGeometry>
        </mxCell>
        <mxCell id="8NmhvUqBQo3J2bWAmBWH-27" value="" style="endArrow=none;html=1;rounded=0;exitX=0.5;exitY=1;exitDx=0;exitDy=0;endFill=0;" edge="1" parent="1" source="8NmhvUqBQo3J2bWAmBWH-16" target="8NmhvUqBQo3J2bWAmBWH-20">
          <mxGeometry width="50" height="50" relative="1" as="geometry">
            <mxPoint x="510" y="680" as="sourcePoint" />
            <mxPoint x="560" y="630" as="targetPoint" />
          </mxGeometry>
        </mxCell>
        <mxCell id="8NmhvUqBQo3J2bWAmBWH-28" value="Store payment details" style="rounded=0;whiteSpace=wrap;html=1;" vertex="1" parent="1">
          <mxGeometry x="550" y="440" width="130" height="40" as="geometry" />
        </mxCell>
        <mxCell id="8NmhvUqBQo3J2bWAmBWH-29" value="generate transaction record" style="rounded=0;whiteSpace=wrap;html=1;" vertex="1" parent="1">
          <mxGeometry x="730" y="440" width="150" height="40" as="geometry" />
        </mxCell>
        <mxCell id="8NmhvUqBQo3J2bWAmBWH-30" value="" style="endArrow=none;html=1;rounded=0;exitX=0.5;exitY=1;exitDx=0;exitDy=0;entryX=0.599;entryY=-0.032;entryDx=0;entryDy=0;entryPerimeter=0;endFill=0;" edge="1" parent="1" source="8NmhvUqBQo3J2bWAmBWH-5" target="8NmhvUqBQo3J2bWAmBWH-28">
          <mxGeometry width="50" height="50" relative="1" as="geometry">
            <mxPoint x="670" y="410" as="sourcePoint" />
            <mxPoint x="720" y="360" as="targetPoint" />
          </mxGeometry>
        </mxCell>
        <mxCell id="8NmhvUqBQo3J2bWAmBWH-31" value="" style="endArrow=none;html=1;rounded=0;exitX=0.5;exitY=1;exitDx=0;exitDy=0;endFill=0;" edge="1" parent="1" source="8NmhvUqBQo3J2bWAmBWH-5" target="8NmhvUqBQo3J2bWAmBWH-29">
          <mxGeometry width="50" height="50" relative="1" as="geometry">
            <mxPoint x="740" y="370" as="sourcePoint" />
            <mxPoint x="790" y="320" as="targetPoint" />
          </mxGeometry>
        </mxCell>
        <mxCell id="8NmhvUqBQo3J2bWAmBWH-32" value="get product price" style="rounded=0;whiteSpace=wrap;html=1;" vertex="1" parent="1">
          <mxGeometry x="-210" y="640" width="130" height="40" as="geometry" />
        </mxCell>
        <mxCell id="8NmhvUqBQo3J2bWAmBWH-33" value="product history" style="rounded=0;whiteSpace=wrap;html=1;" vertex="1" parent="1">
          <mxGeometry x="-40" y="640" width="130" height="40" as="geometry" />
        </mxCell>
        <mxCell id="8NmhvUqBQo3J2bWAmBWH-34" value="" style="endArrow=none;html=1;rounded=0;entryX=0.635;entryY=0.093;entryDx=0;entryDy=0;entryPerimeter=0;endFill=0;" edge="1" parent="1" target="8NmhvUqBQo3J2bWAmBWH-32">
          <mxGeometry width="50" height="50" relative="1" as="geometry">
            <mxPoint x="-85" y="561" as="sourcePoint" />
            <mxPoint x="-80" y="580" as="targetPoint" />
          </mxGeometry>
        </mxCell>
        <mxCell id="8NmhvUqBQo3J2bWAmBWH-35" value="" style="endArrow=none;html=1;rounded=0;entryX=0.25;entryY=0;entryDx=0;entryDy=0;endFill=0;" edge="1" parent="1" target="8NmhvUqBQo3J2bWAmBWH-33">
          <mxGeometry width="50" height="50" relative="1" as="geometry">
            <mxPoint x="-85" y="560" as="sourcePoint" />
            <mxPoint x="40" y="580" as="targetPoint" />
          </mxGeometry>
        </mxCell>
        <mxCell id="8NmhvUqBQo3J2bWAmBWH-36" value="Transaction Status" style="rounded=0;whiteSpace=wrap;html=1;" vertex="1" parent="1">
          <mxGeometry x="770" y="540" width="130" height="40" as="geometry" />
        </mxCell>
        <mxCell id="8NmhvUqBQo3J2bWAmBWH-37" value="Transaction Validation" style="rounded=0;whiteSpace=wrap;html=1;" vertex="1" parent="1">
          <mxGeometry x="1100" y="520" width="130" height="40" as="geometry" />
        </mxCell>
        <mxCell id="8NmhvUqBQo3J2bWAmBWH-38" value="" style="endArrow=none;html=1;rounded=0;entryX=0.592;entryY=0.056;entryDx=0;entryDy=0;entryPerimeter=0;endFill=0;" edge="1" parent="1" target="8NmhvUqBQo3J2bWAmBWH-36">
          <mxGeometry width="50" height="50" relative="1" as="geometry">
            <mxPoint x="1015" y="320" as="sourcePoint" />
            <mxPoint x="1090" y="400" as="targetPoint" />
            <Array as="points">
              <mxPoint x="1000" y="350" />
            </Array>
          </mxGeometry>
        </mxCell>
        <mxCell id="8NmhvUqBQo3J2bWAmBWH-39" value="" style="endArrow=none;html=1;rounded=0;exitX=0.5;exitY=1;exitDx=0;exitDy=0;entryX=0.342;entryY=-0.09;entryDx=0;entryDy=0;entryPerimeter=0;endFill=0;" edge="1" parent="1" source="8NmhvUqBQo3J2bWAmBWH-6" target="8NmhvUqBQo3J2bWAmBWH-37">
          <mxGeometry width="50" height="50" relative="1" as="geometry">
            <mxPoint x="1019.9999999999998" y="331.4" as="sourcePoint" />
            <mxPoint x="1181.3533467417535" y="560" as="targetPoint" />
          </mxGeometry>
        </mxCell>
        <mxCell id="8NmhvUqBQo3J2bWAmBWH-40" value="" style="rhombus;whiteSpace=wrap;html=1;" vertex="1" parent="1">
          <mxGeometry x="800" y="580" width="90" height="80" as="geometry" />
        </mxCell>
        <mxCell id="8NmhvUqBQo3J2bWAmBWH-41" value="pending" style="rounded=0;whiteSpace=wrap;html=1;" vertex="1" parent="1">
          <mxGeometry x="670" y="740" width="130" height="40" as="geometry" />
        </mxCell>
        <mxCell id="8NmhvUqBQo3J2bWAmBWH-42" value="complete" style="rounded=0;whiteSpace=wrap;html=1;" vertex="1" parent="1">
          <mxGeometry x="860" y="740" width="140" height="40" as="geometry" />
        </mxCell>
        <mxCell id="8NmhvUqBQo3J2bWAmBWH-43" value="" style="endArrow=none;html=1;rounded=0;exitX=0.5;exitY=1;exitDx=0;exitDy=0;endFill=0;" edge="1" parent="1" source="8NmhvUqBQo3J2bWAmBWH-40">
          <mxGeometry width="50" height="50" relative="1" as="geometry">
            <mxPoint x="730" y="720" as="sourcePoint" />
            <mxPoint x="760" y="740" as="targetPoint" />
          </mxGeometry>
        </mxCell>
        <mxCell id="8NmhvUqBQo3J2bWAmBWH-44" value="" style="endArrow=none;html=1;rounded=0;exitX=0.5;exitY=1;exitDx=0;exitDy=0;entryX=0.402;entryY=-0.007;entryDx=0;entryDy=0;entryPerimeter=0;endFill=0;" edge="1" parent="1" source="8NmhvUqBQo3J2bWAmBWH-40" target="8NmhvUqBQo3J2bWAmBWH-42">
          <mxGeometry width="50" height="50" relative="1" as="geometry">
            <mxPoint x="910" y="710" as="sourcePoint" />
            <mxPoint x="960" y="660" as="targetPoint" />
            <Array as="points" />
          </mxGeometry>
        </mxCell>
        <mxCell id="8NmhvUqBQo3J2bWAmBWH-45" value="Receipt" style="rounded=0;whiteSpace=wrap;html=1;" vertex="1" parent="1">
          <mxGeometry x="990" y="651" width="130" height="40" as="geometry" />
        </mxCell>
        <mxCell id="8NmhvUqBQo3J2bWAmBWH-46" value="Check data completeness" style="rounded=0;whiteSpace=wrap;html=1;" vertex="1" parent="1">
          <mxGeometry x="1160" y="650" width="150" height="40" as="geometry" />
        </mxCell>
        <mxCell id="8NmhvUqBQo3J2bWAmBWH-47" value="" style="endArrow=none;html=1;rounded=0;exitX=0.5;exitY=1;exitDx=0;exitDy=0;entryX=0.5;entryY=0;entryDx=0;entryDy=0;endFill=0;" edge="1" parent="1" source="8NmhvUqBQo3J2bWAmBWH-37" target="8NmhvUqBQo3J2bWAmBWH-45">
          <mxGeometry width="50" height="50" relative="1" as="geometry">
            <mxPoint x="1250" y="600" as="sourcePoint" />
            <mxPoint x="1300" y="550" as="targetPoint" />
          </mxGeometry>
        </mxCell>
        <mxCell id="8NmhvUqBQo3J2bWAmBWH-48" value="" style="endArrow=none;html=1;rounded=0;exitX=0.5;exitY=1;exitDx=0;exitDy=0;entryX=0.25;entryY=0;entryDx=0;entryDy=0;endFill=0;" edge="1" parent="1" source="8NmhvUqBQo3J2bWAmBWH-37" target="8NmhvUqBQo3J2bWAmBWH-46">
          <mxGeometry width="50" height="50" relative="1" as="geometry">
            <mxPoint x="1250" y="590" as="sourcePoint" />
            <mxPoint x="1300" y="540" as="targetPoint" />
          </mxGeometry>
        </mxCell>
        <mxCell id="8NmhvUqBQo3J2bWAmBWH-50" value="Request missing data" style="rounded=0;whiteSpace=wrap;html=1;" vertex="1" parent="1">
          <mxGeometry x="1360" y="650" width="120" height="40" as="geometry" />
        </mxCell>
        <mxCell id="8NmhvUqBQo3J2bWAmBWH-53" value="" style="endArrow=classic;html=1;rounded=0;exitX=0.5;exitY=1;exitDx=0;exitDy=0;entryX=0.5;entryY=0;entryDx=0;entryDy=0;" edge="1" parent="1" source="8NmhvUqBQo3J2bWAmBWH-1" target="8NmhvUqBQo3J2bWAmBWH-2">
          <mxGeometry width="50" height="50" relative="1" as="geometry">
            <mxPoint x="540" y="220" as="sourcePoint" />
            <mxPoint x="590" y="170" as="targetPoint" />
          </mxGeometry>
        </mxCell>
        <mxCell id="8NmhvUqBQo3J2bWAmBWH-54" value="" style="endArrow=none;html=1;rounded=0;entryX=0.75;entryY=0;entryDx=0;entryDy=0;endFill=0;" edge="1" parent="1" target="8NmhvUqBQo3J2bWAmBWH-3">
          <mxGeometry width="50" height="50" relative="1" as="geometry">
            <mxPoint x="530" y="139" as="sourcePoint" />
            <mxPoint x="470" y="180" as="targetPoint" />
          </mxGeometry>
        </mxCell>
        <mxCell id="8NmhvUqBQo3J2bWAmBWH-55" value="" style="endArrow=none;html=1;rounded=0;exitX=0.5;exitY=1;exitDx=0;exitDy=0;entryX=0.371;entryY=0.17;entryDx=0;entryDy=0;entryPerimeter=0;endFill=0;" edge="1" parent="1" source="8NmhvUqBQo3J2bWAmBWH-2" target="8NmhvUqBQo3J2bWAmBWH-4">
          <mxGeometry width="50" height="50" relative="1" as="geometry">
            <mxPoint x="640" y="210" as="sourcePoint" />
            <mxPoint x="690" y="160" as="targetPoint" />
          </mxGeometry>
        </mxCell>
        <mxCell id="8NmhvUqBQo3J2bWAmBWH-56" value="" style="endArrow=none;html=1;rounded=0;exitX=0.596;exitY=0.966;exitDx=0;exitDy=0;exitPerimeter=0;entryX=0.347;entryY=-0.011;entryDx=0;entryDy=0;entryPerimeter=0;endFill=0;" edge="1" parent="1" source="8NmhvUqBQo3J2bWAmBWH-2" target="8NmhvUqBQo3J2bWAmBWH-5">
          <mxGeometry width="50" height="50" relative="1" as="geometry">
            <mxPoint x="560" y="260" as="sourcePoint" />
            <mxPoint x="610" y="210" as="targetPoint" />
          </mxGeometry>
        </mxCell>
        <mxCell id="8NmhvUqBQo3J2bWAmBWH-57" value="" style="endArrow=none;html=1;rounded=0;exitX=0.853;exitY=1.027;exitDx=0;exitDy=0;exitPerimeter=0;entryX=0.25;entryY=0;entryDx=0;entryDy=0;endFill=0;" edge="1" parent="1" source="8NmhvUqBQo3J2bWAmBWH-2" target="8NmhvUqBQo3J2bWAmBWH-6">
          <mxGeometry width="50" height="50" relative="1" as="geometry">
            <mxPoint x="730" y="210" as="sourcePoint" />
            <mxPoint x="780" y="160" as="targetPoint" />
          </mxGeometry>
        </mxCell>
        <mxCell id="8NmhvUqBQo3J2bWAmBWH-60" value="" style="endArrow=classic;html=1;rounded=0;startArrow=oval;startFill=0;" edge="1" parent="1">
          <mxGeometry width="50" height="50" relative="1" as="geometry">
            <mxPoint x="420" y="160" as="sourcePoint" />
            <mxPoint x="290" y="210" as="targetPoint" />
          </mxGeometry>
        </mxCell>
        <mxCell id="8NmhvUqBQo3J2bWAmBWH-61" value="Payment id" style="text;html=1;align=center;verticalAlign=middle;whiteSpace=wrap;rounded=0;" vertex="1" parent="1">
          <mxGeometry x="280" y="150" width="80" height="30" as="geometry" />
        </mxCell>
        <mxCell id="8NmhvUqBQo3J2bWAmBWH-62" value="" style="endArrow=classic;html=1;rounded=0;startArrow=oval;startFill=0;" edge="1" parent="1">
          <mxGeometry width="50" height="50" relative="1" as="geometry">
            <mxPoint x="20" y="390" as="sourcePoint" />
            <mxPoint x="60" y="340" as="targetPoint" />
          </mxGeometry>
        </mxCell>
        <mxCell id="8NmhvUqBQo3J2bWAmBWH-63" value="Compared Price" style="text;html=1;align=center;verticalAlign=middle;whiteSpace=wrap;rounded=0;" vertex="1" parent="1">
          <mxGeometry x="-55" y="340" width="100" height="30" as="geometry" />
        </mxCell>
        <mxCell id="8NmhvUqBQo3J2bWAmBWH-66" value="" style="endArrow=classic;html=1;rounded=0;startArrow=oval;startFill=0;" edge="1" parent="1">
          <mxGeometry width="50" height="50" relative="1" as="geometry">
            <mxPoint x="-30" y="470" as="sourcePoint" />
            <mxPoint x="-70" y="500" as="targetPoint" />
          </mxGeometry>
        </mxCell>
        <mxCell id="8NmhvUqBQo3J2bWAmBWH-67" value="Price" style="text;html=1;align=center;verticalAlign=middle;whiteSpace=wrap;rounded=0;" vertex="1" parent="1">
          <mxGeometry x="-100" y="460" width="60" height="30" as="geometry" />
        </mxCell>
        <mxCell id="8NmhvUqBQo3J2bWAmBWH-68" value="" style="endArrow=classic;html=1;rounded=0;startArrow=oval;startFill=0;" edge="1" parent="1">
          <mxGeometry width="50" height="50" relative="1" as="geometry">
            <mxPoint x="-130" y="620" as="sourcePoint" />
            <mxPoint x="-110" y="580" as="targetPoint" />
          </mxGeometry>
        </mxCell>
        <mxCell id="8NmhvUqBQo3J2bWAmBWH-69" value="Product ID" style="text;html=1;align=center;verticalAlign=middle;whiteSpace=wrap;rounded=0;" vertex="1" parent="1">
          <mxGeometry x="-180" y="580" width="60" height="30" as="geometry" />
        </mxCell>
        <mxCell id="8NmhvUqBQo3J2bWAmBWH-70" value="" style="endArrow=classic;html=1;rounded=0;startArrow=oval;startFill=0;" edge="1" parent="1">
          <mxGeometry width="50" height="50" relative="1" as="geometry">
            <mxPoint x="-90" y="590" as="sourcePoint" />
            <mxPoint x="-110" y="630" as="targetPoint" />
          </mxGeometry>
        </mxCell>
        <mxCell id="8NmhvUqBQo3J2bWAmBWH-73" value="Price" style="text;html=1;align=center;verticalAlign=middle;whiteSpace=wrap;rounded=0;" vertex="1" parent="1">
          <mxGeometry x="-100" y="600" width="60" height="30" as="geometry" />
        </mxCell>
        <mxCell id="8NmhvUqBQo3J2bWAmBWH-74" value="" style="endArrow=classic;html=1;rounded=0;startArrow=oval;startFill=0;" edge="1" parent="1">
          <mxGeometry width="50" height="50" relative="1" as="geometry">
            <mxPoint x="-40" y="580" as="sourcePoint" />
            <mxPoint x="-10" y="610" as="targetPoint" />
          </mxGeometry>
        </mxCell>
        <mxCell id="8NmhvUqBQo3J2bWAmBWH-75" value="History" style="text;html=1;align=center;verticalAlign=middle;whiteSpace=wrap;rounded=0;" vertex="1" parent="1">
          <mxGeometry x="-30" y="569" width="60" height="31" as="geometry" />
        </mxCell>
        <mxCell id="8NmhvUqBQo3J2bWAmBWH-76" value="" style="endArrow=classic;html=1;rounded=0;startArrow=oval;startFill=0;" edge="1" parent="1">
          <mxGeometry width="50" height="50" relative="1" as="geometry">
            <mxPoint x="20" y="470" as="sourcePoint" />
            <mxPoint x="40" y="500" as="targetPoint" />
          </mxGeometry>
        </mxCell>
        <mxCell id="8NmhvUqBQo3J2bWAmBWH-77" value="Data" style="text;html=1;align=center;verticalAlign=middle;whiteSpace=wrap;rounded=0;" vertex="1" parent="1">
          <mxGeometry x="20" y="470" width="60" height="30" as="geometry" />
        </mxCell>
        <mxCell id="8NmhvUqBQo3J2bWAmBWH-78" value="" style="endArrow=classic;html=1;rounded=0;startArrow=oval;startFill=0;" edge="1" parent="1">
          <mxGeometry width="50" height="50" relative="1" as="geometry">
            <mxPoint x="150" y="390" as="sourcePoint" />
            <mxPoint x="120" y="340" as="targetPoint" />
          </mxGeometry>
        </mxCell>
        <mxCell id="8NmhvUqBQo3J2bWAmBWH-79" value="Validated Status" style="text;html=1;align=center;verticalAlign=middle;whiteSpace=wrap;rounded=0;" vertex="1" parent="1">
          <mxGeometry x="150" y="340" width="60" height="30" as="geometry" />
        </mxCell>
        <mxCell id="8NmhvUqBQo3J2bWAmBWH-81" value="" style="endArrow=classic;html=1;rounded=0;startArrow=oval;startFill=0;" edge="1" parent="1">
          <mxGeometry width="50" height="50" relative="1" as="geometry">
            <mxPoint x="100" y="360" as="sourcePoint" />
            <mxPoint x="130" y="410" as="targetPoint" />
          </mxGeometry>
        </mxCell>
        <mxCell id="8NmhvUqBQo3J2bWAmBWH-82" value="Price&amp;nbsp;&lt;div&gt;Details&lt;/div&gt;" style="text;html=1;align=center;verticalAlign=middle;whiteSpace=wrap;rounded=0;" vertex="1" parent="1">
          <mxGeometry x="55" y="370" width="80" height="30" as="geometry" />
        </mxCell>
        <mxCell id="8NmhvUqBQo3J2bWAmBWH-83" value="" style="endArrow=classic;html=1;rounded=0;startArrow=oval;startFill=0;" edge="1" parent="1">
          <mxGeometry width="50" height="50" relative="1" as="geometry">
            <mxPoint x="260" y="250" as="sourcePoint" />
            <mxPoint x="340" y="220" as="targetPoint" />
          </mxGeometry>
        </mxCell>
        <mxCell id="8NmhvUqBQo3J2bWAmBWH-84" value="Price" style="text;html=1;align=center;verticalAlign=middle;whiteSpace=wrap;rounded=0;" vertex="1" parent="1">
          <mxGeometry x="275" y="240" width="60" height="30" as="geometry" />
        </mxCell>
        <mxCell id="8NmhvUqBQo3J2bWAmBWH-85" value="" style="endArrow=classic;html=1;rounded=0;startArrow=oval;startFill=1;" edge="1" parent="1">
          <mxGeometry width="50" height="50" relative="1" as="geometry">
            <mxPoint x="370" y="210" as="sourcePoint" />
            <mxPoint x="440" y="180" as="targetPoint" />
          </mxGeometry>
        </mxCell>
        <mxCell id="8NmhvUqBQo3J2bWAmBWH-88" value="EOF" style="text;html=1;align=center;verticalAlign=middle;whiteSpace=wrap;rounded=0;" vertex="1" parent="1">
          <mxGeometry x="385" y="200" width="60" height="30" as="geometry" />
        </mxCell>
        <mxCell id="8NmhvUqBQo3J2bWAmBWH-89" value="" style="endArrow=classic;html=1;rounded=0;startArrow=oval;startFill=0;" edge="1" parent="1">
          <mxGeometry width="50" height="50" relative="1" as="geometry">
            <mxPoint x="530" y="190" as="sourcePoint" />
            <mxPoint x="450" y="250" as="targetPoint" />
          </mxGeometry>
        </mxCell>
        <mxCell id="8NmhvUqBQo3J2bWAmBWH-90" value="Payment Id" style="text;html=1;align=center;verticalAlign=middle;whiteSpace=wrap;rounded=0;" vertex="1" parent="1">
          <mxGeometry x="495" y="230" width="60" height="30" as="geometry" />
        </mxCell>
        <mxCell id="8NmhvUqBQo3J2bWAmBWH-91" value="" style="endArrow=classic;html=1;rounded=0;startArrow=oval;startFill=0;" edge="1" parent="1">
          <mxGeometry width="50" height="50" relative="1" as="geometry">
            <mxPoint x="300" y="500" as="sourcePoint" />
            <mxPoint x="330" y="440" as="targetPoint" />
          </mxGeometry>
        </mxCell>
        <mxCell id="8NmhvUqBQo3J2bWAmBWH-92" value="Validation" style="text;html=1;align=center;verticalAlign=middle;whiteSpace=wrap;rounded=0;" vertex="1" parent="1">
          <mxGeometry x="260" y="445" width="60" height="30" as="geometry" />
        </mxCell>
        <mxCell id="8NmhvUqBQo3J2bWAmBWH-93" value="" style="endArrow=classic;html=1;rounded=0;startArrow=oval;startFill=0;" edge="1" parent="1">
          <mxGeometry width="50" height="50" relative="1" as="geometry">
            <mxPoint x="430" y="410" as="sourcePoint" />
            <mxPoint x="460" y="470" as="targetPoint" />
          </mxGeometry>
        </mxCell>
        <mxCell id="8NmhvUqBQo3J2bWAmBWH-94" value="Payment Details" style="text;html=1;align=center;verticalAlign=middle;whiteSpace=wrap;rounded=0;" vertex="1" parent="1">
          <mxGeometry x="445" y="420" width="95" height="30" as="geometry" />
        </mxCell>
        <mxCell id="8NmhvUqBQo3J2bWAmBWH-95" value="" style="endArrow=classic;html=1;rounded=0;startArrow=oval;startFill=0;" edge="1" parent="1">
          <mxGeometry width="50" height="50" relative="1" as="geometry">
            <mxPoint x="480" y="620" as="sourcePoint" />
            <mxPoint x="430" y="670" as="targetPoint" />
          </mxGeometry>
        </mxCell>
        <mxCell id="8NmhvUqBQo3J2bWAmBWH-96" value="Payment ID" style="text;html=1;align=center;verticalAlign=middle;whiteSpace=wrap;rounded=0;" vertex="1" parent="1">
          <mxGeometry x="365" y="620" width="90" height="30" as="geometry" />
        </mxCell>
        <mxCell id="8NmhvUqBQo3J2bWAmBWH-97" value="" style="endArrow=classic;html=1;rounded=0;startArrow=oval;startFill=1;" edge="1" parent="1">
          <mxGeometry width="50" height="50" relative="1" as="geometry">
            <mxPoint x="560" y="670" as="sourcePoint" />
            <mxPoint x="520" y="620" as="targetPoint" />
          </mxGeometry>
        </mxCell>
        <mxCell id="8NmhvUqBQo3J2bWAmBWH-98" value="Failure" style="text;html=1;align=center;verticalAlign=middle;whiteSpace=wrap;rounded=0;" vertex="1" parent="1">
          <mxGeometry x="540" y="630" width="60" height="30" as="geometry" />
        </mxCell>
        <mxCell id="8NmhvUqBQo3J2bWAmBWH-101" value="" style="endArrow=classic;html=1;rounded=0;startArrow=oval;startFill=0;" edge="1" parent="1">
          <mxGeometry width="50" height="50" relative="1" as="geometry">
            <mxPoint x="490" y="870" as="sourcePoint" />
            <mxPoint x="440" y="820" as="targetPoint" />
          </mxGeometry>
        </mxCell>
        <mxCell id="8NmhvUqBQo3J2bWAmBWH-102" value="Rejection" style="text;html=1;align=center;verticalAlign=middle;whiteSpace=wrap;rounded=0;" vertex="1" parent="1">
          <mxGeometry x="490" y="820" width="60" height="30" as="geometry" />
        </mxCell>
        <mxCell id="8NmhvUqBQo3J2bWAmBWH-103" value="" style="endArrow=classic;html=1;rounded=0;startArrow=oval;startFill=0;" edge="1" parent="1">
          <mxGeometry width="50" height="50" relative="1" as="geometry">
            <mxPoint x="320" y="860" as="sourcePoint" />
            <mxPoint x="380" y="810" as="targetPoint" />
          </mxGeometry>
        </mxCell>
        <mxCell id="8NmhvUqBQo3J2bWAmBWH-104" value="Success" style="text;html=1;align=center;verticalAlign=middle;whiteSpace=wrap;rounded=0;" vertex="1" parent="1">
          <mxGeometry x="300" y="800" width="60" height="30" as="geometry" />
        </mxCell>
        <mxCell id="8NmhvUqBQo3J2bWAmBWH-105" value="" style="endArrow=oval;html=1;rounded=0;startArrow=classic;startFill=1;endFill=0;" edge="1" parent="1">
          <mxGeometry width="50" height="50" relative="1" as="geometry">
            <mxPoint x="350" y="870" as="sourcePoint" />
            <mxPoint x="400" y="830" as="targetPoint" />
          </mxGeometry>
        </mxCell>
        <mxCell id="8NmhvUqBQo3J2bWAmBWH-106" value="Auth id" style="text;html=1;align=center;verticalAlign=middle;whiteSpace=wrap;rounded=0;" vertex="1" parent="1">
          <mxGeometry x="370" y="840" width="60" height="30" as="geometry" />
        </mxCell>
        <mxCell id="8NmhvUqBQo3J2bWAmBWH-107" value="" style="endArrow=classic;html=1;rounded=0;startArrow=oval;startFill=0;" edge="1" parent="1">
          <mxGeometry width="50" height="50" relative="1" as="geometry">
            <mxPoint x="510" y="630" as="sourcePoint" />
            <mxPoint x="540" y="680" as="targetPoint" />
          </mxGeometry>
        </mxCell>
        <mxCell id="8NmhvUqBQo3J2bWAmBWH-110" value="Payment ID" style="text;html=1;align=center;verticalAlign=middle;whiteSpace=wrap;rounded=0;" vertex="1" parent="1">
          <mxGeometry x="462.5" y="645" width="60" height="30" as="geometry" />
        </mxCell>
        <mxCell id="8NmhvUqBQo3J2bWAmBWH-111" value="" style="endArrow=classic;html=1;rounded=0;startArrow=oval;startFill=0;" edge="1" parent="1">
          <mxGeometry width="50" height="50" relative="1" as="geometry">
            <mxPoint x="650" y="220" as="sourcePoint" />
            <mxPoint x="680" y="260" as="targetPoint" />
          </mxGeometry>
        </mxCell>
        <mxCell id="8NmhvUqBQo3J2bWAmBWH-112" value="Trasaction Id" style="text;html=1;align=center;verticalAlign=middle;whiteSpace=wrap;rounded=0;" vertex="1" parent="1">
          <mxGeometry x="670" y="210" width="60" height="30" as="geometry" />
        </mxCell>
        <mxCell id="8NmhvUqBQo3J2bWAmBWH-113" value="" style="endArrow=classic;html=1;rounded=0;startArrow=oval;startFill=0;" edge="1" parent="1">
          <mxGeometry width="50" height="50" relative="1" as="geometry">
            <mxPoint x="610" y="170" as="sourcePoint" />
            <mxPoint x="640" y="210" as="targetPoint" />
          </mxGeometry>
        </mxCell>
        <mxCell id="8NmhvUqBQo3J2bWAmBWH-114" value="Payment ID" style="text;html=1;align=center;verticalAlign=middle;whiteSpace=wrap;rounded=0;" vertex="1" parent="1">
          <mxGeometry x="620" y="170" width="60" height="30" as="geometry" />
        </mxCell>
        <mxCell id="8NmhvUqBQo3J2bWAmBWH-116" value="" style="endArrow=classic;html=1;rounded=0;startArrow=oval;startFill=0;" edge="1" parent="1">
          <mxGeometry width="50" height="50" relative="1" as="geometry">
            <mxPoint x="680" y="330" as="sourcePoint" />
            <mxPoint x="620" y="420" as="targetPoint" />
          </mxGeometry>
        </mxCell>
        <mxCell id="8NmhvUqBQo3J2bWAmBWH-117" value="Trasaction Details" style="text;html=1;align=center;verticalAlign=middle;whiteSpace=wrap;rounded=0;" vertex="1" parent="1">
          <mxGeometry x="585" y="350" width="60" height="30" as="geometry" />
        </mxCell>
        <mxCell id="8NmhvUqBQo3J2bWAmBWH-118" value="" style="endArrow=classic;html=1;rounded=0;startArrow=oval;startFill=0;" edge="1" parent="1">
          <mxGeometry width="50" height="50" relative="1" as="geometry">
            <mxPoint x="800" y="420" as="sourcePoint" />
            <mxPoint x="750" y="340" as="targetPoint" />
          </mxGeometry>
        </mxCell>
        <mxCell id="8NmhvUqBQo3J2bWAmBWH-119" value="Record" style="text;html=1;align=center;verticalAlign=middle;whiteSpace=wrap;rounded=0;" vertex="1" parent="1">
          <mxGeometry x="790" y="360" width="60" height="30" as="geometry" />
        </mxCell>
        <mxCell id="8NmhvUqBQo3J2bWAmBWH-120" value="" style="endArrow=classic;html=1;rounded=0;startArrow=oval;startFill=0;" edge="1" parent="1">
          <mxGeometry width="50" height="50" relative="1" as="geometry">
            <mxPoint x="720" y="360" as="sourcePoint" />
            <mxPoint x="770" y="430" as="targetPoint" />
          </mxGeometry>
        </mxCell>
        <mxCell id="8NmhvUqBQo3J2bWAmBWH-122" value="Trasaction id" style="text;html=1;align=center;verticalAlign=middle;whiteSpace=wrap;rounded=0;" vertex="1" parent="1">
          <mxGeometry x="680" y="390" width="60" height="30" as="geometry" />
        </mxCell>
        <mxCell id="8NmhvUqBQo3J2bWAmBWH-123" value="" style="endArrow=classic;html=1;rounded=0;startArrow=oval;startFill=0;" edge="1" parent="1">
          <mxGeometry width="50" height="50" relative="1" as="geometry">
            <mxPoint x="800" y="180" as="sourcePoint" />
            <mxPoint x="950" y="240" as="targetPoint" />
          </mxGeometry>
        </mxCell>
        <mxCell id="8NmhvUqBQo3J2bWAmBWH-124" value="Receipt id" style="text;html=1;align=center;verticalAlign=middle;whiteSpace=wrap;rounded=0;" vertex="1" parent="1">
          <mxGeometry x="870" y="170" width="60" height="30" as="geometry" />
        </mxCell>
        <mxCell id="8NmhvUqBQo3J2bWAmBWH-125" value="" style="endArrow=classic;html=1;rounded=0;startArrow=oval;startFill=0;" edge="1" parent="1">
          <mxGeometry width="50" height="50" relative="1" as="geometry">
            <mxPoint x="680" y="140" as="sourcePoint" />
            <mxPoint x="770" y="180" as="targetPoint" />
          </mxGeometry>
        </mxCell>
        <mxCell id="8NmhvUqBQo3J2bWAmBWH-126" value="Transaction ID" style="text;html=1;align=center;verticalAlign=middle;whiteSpace=wrap;rounded=0;" vertex="1" parent="1">
          <mxGeometry x="570" y="230" width="60" height="30" as="geometry" />
        </mxCell>
        <mxCell id="8NmhvUqBQo3J2bWAmBWH-127" value="" style="endArrow=classic;html=1;rounded=0;startArrow=oval;startFill=0;" edge="1" parent="1">
          <mxGeometry width="50" height="50" relative="1" as="geometry">
            <mxPoint x="650" y="260" as="sourcePoint" />
            <mxPoint x="610" y="200" as="targetPoint" />
          </mxGeometry>
        </mxCell>
        <mxCell id="8NmhvUqBQo3J2bWAmBWH-128" value="Transaction ID" style="text;html=1;align=center;verticalAlign=middle;whiteSpace=wrap;rounded=0;" vertex="1" parent="1">
          <mxGeometry x="885" y="380" width="60" height="30" as="geometry" />
        </mxCell>
        <mxCell id="8NmhvUqBQo3J2bWAmBWH-129" value="" style="endArrow=classic;html=1;rounded=0;startArrow=oval;startFill=0;" edge="1" parent="1">
          <mxGeometry width="50" height="50" relative="1" as="geometry">
            <mxPoint x="970" y="360" as="sourcePoint" />
            <mxPoint x="900" y="440" as="targetPoint" />
          </mxGeometry>
        </mxCell>
        <mxCell id="8NmhvUqBQo3J2bWAmBWH-131" value="" style="endArrow=classic;html=1;rounded=0;startArrow=oval;startFill=0;" edge="1" parent="1">
          <mxGeometry width="50" height="50" relative="1" as="geometry">
            <mxPoint x="760" y="710" as="sourcePoint" />
            <mxPoint x="810" y="660" as="targetPoint" />
          </mxGeometry>
        </mxCell>
        <mxCell id="8NmhvUqBQo3J2bWAmBWH-132" value="PStatus" style="text;html=1;align=center;verticalAlign=middle;whiteSpace=wrap;rounded=0;" vertex="1" parent="1">
          <mxGeometry x="730" y="660" width="60" height="30" as="geometry" />
        </mxCell>
        <mxCell id="8NmhvUqBQo3J2bWAmBWH-134" value="" style="endArrow=classic;html=1;rounded=0;startArrow=oval;startFill=0;" edge="1" parent="1">
          <mxGeometry width="50" height="50" relative="1" as="geometry">
            <mxPoint x="920" y="720" as="sourcePoint" />
            <mxPoint x="870" y="670" as="targetPoint" />
          </mxGeometry>
        </mxCell>
        <mxCell id="8NmhvUqBQo3J2bWAmBWH-135" value="CStatus" style="text;html=1;align=center;verticalAlign=middle;whiteSpace=wrap;rounded=0;" vertex="1" parent="1">
          <mxGeometry x="890" y="665" width="60" height="30" as="geometry" />
        </mxCell>
        <mxCell id="8NmhvUqBQo3J2bWAmBWH-136" value="" style="endArrow=none;html=1;rounded=0;entryX=0.409;entryY=-0.014;entryDx=0;entryDy=0;entryPerimeter=0;endFill=0;" edge="1" parent="1" target="8NmhvUqBQo3J2bWAmBWH-50">
          <mxGeometry width="50" height="50" relative="1" as="geometry">
            <mxPoint x="1170" y="560" as="sourcePoint" />
            <mxPoint x="1310" y="570" as="targetPoint" />
          </mxGeometry>
        </mxCell>
        <mxCell id="8NmhvUqBQo3J2bWAmBWH-137" value="Receipt ID" style="text;html=1;align=center;verticalAlign=middle;whiteSpace=wrap;rounded=0;" vertex="1" parent="1">
          <mxGeometry x="1030" y="569" width="60" height="30" as="geometry" />
        </mxCell>
        <mxCell id="8NmhvUqBQo3J2bWAmBWH-138" value="" style="endArrow=classic;html=1;rounded=0;startArrow=oval;startFill=0;" edge="1" parent="1">
          <mxGeometry width="50" height="50" relative="1" as="geometry">
            <mxPoint x="1070" y="620" as="sourcePoint" />
            <mxPoint x="1140" y="570" as="targetPoint" />
          </mxGeometry>
        </mxCell>
        <mxCell id="8NmhvUqBQo3J2bWAmBWH-139" value="" style="endArrow=classic;html=1;rounded=0;startArrow=oval;startFill=0;" edge="1" parent="1">
          <mxGeometry width="50" height="50" relative="1" as="geometry">
            <mxPoint x="1180" y="590" as="sourcePoint" />
            <mxPoint x="1210" y="640" as="targetPoint" />
          </mxGeometry>
        </mxCell>
        <mxCell id="8NmhvUqBQo3J2bWAmBWH-140" value="Receipt Details" style="text;html=1;align=center;verticalAlign=middle;whiteSpace=wrap;rounded=0;" vertex="1" parent="1">
          <mxGeometry x="1190" y="590" width="60" height="30" as="geometry" />
        </mxCell>
        <mxCell id="8NmhvUqBQo3J2bWAmBWH-141" value="" style="endArrow=classic;html=1;rounded=0;startArrow=oval;startFill=0;" edge="1" parent="1">
          <mxGeometry width="50" height="50" relative="1" as="geometry">
            <mxPoint x="1240" y="570" as="sourcePoint" />
            <mxPoint x="1320" y="600" as="targetPoint" />
          </mxGeometry>
        </mxCell>
        <mxCell id="8NmhvUqBQo3J2bWAmBWH-142" value="Transaction Data" style="text;html=1;align=center;verticalAlign=middle;whiteSpace=wrap;rounded=0;" vertex="1" parent="1">
          <mxGeometry x="1280" y="555" width="100" height="30" as="geometry" />
        </mxCell>
        <mxCell id="8NmhvUqBQo3J2bWAmBWH-143" value="" style="endArrow=classic;html=1;rounded=0;startArrow=oval;startFill=0;" edge="1" parent="1">
          <mxGeometry width="50" height="50" relative="1" as="geometry">
            <mxPoint x="1340" y="610" as="sourcePoint" />
            <mxPoint x="1420" y="640" as="targetPoint" />
          </mxGeometry>
        </mxCell>
        <mxCell id="8NmhvUqBQo3J2bWAmBWH-144" value="Receipt ID" style="text;html=1;align=center;verticalAlign=middle;whiteSpace=wrap;rounded=0;" vertex="1" parent="1">
          <mxGeometry x="1350" y="591" width="60" height="30" as="geometry" />
        </mxCell>
        <mxCell id="8NmhvUqBQo3J2bWAmBWH-145" value="" style="endArrow=classic;html=1;rounded=0;startArrow=oval;startFill=1;" edge="1" parent="1">
          <mxGeometry width="50" height="50" relative="1" as="geometry">
            <mxPoint x="1360" y="640" as="sourcePoint" />
            <mxPoint x="1300" y="615" as="targetPoint" />
          </mxGeometry>
        </mxCell>
        <mxCell id="8NmhvUqBQo3J2bWAmBWH-146" value="EOF" style="text;html=1;align=center;verticalAlign=middle;whiteSpace=wrap;rounded=0;" vertex="1" parent="1">
          <mxGeometry x="1280" y="621" width="60" height="30" as="geometry" />
        </mxCell>
        <mxCell id="8NmhvUqBQo3J2bWAmBWH-147" value="" style="endArrow=classic;html=1;rounded=0;startArrow=oval;startFill=0;" edge="1" parent="1">
          <mxGeometry width="50" height="50" relative="1" as="geometry">
            <mxPoint x="1150" y="480" as="sourcePoint" />
            <mxPoint x="1100" y="410" as="targetPoint" />
          </mxGeometry>
        </mxCell>
        <mxCell id="8NmhvUqBQo3J2bWAmBWH-148" value="Validation Data" style="text;html=1;align=center;verticalAlign=middle;whiteSpace=wrap;rounded=0;" vertex="1" parent="1">
          <mxGeometry x="1120" y="425" width="60" height="30" as="geometry" />
        </mxCell>
        <mxCell id="8NmhvUqBQo3J2bWAmBWH-149" value="" style="endArrow=classic;html=1;rounded=0;startArrow=oval;startFill=0;" edge="1" parent="1">
          <mxGeometry width="50" height="50" relative="1" as="geometry">
            <mxPoint x="1120" y="500" as="sourcePoint" />
            <mxPoint x="1080" y="440" as="targetPoint" />
          </mxGeometry>
        </mxCell>
        <mxCell id="8NmhvUqBQo3J2bWAmBWH-150" value="Receipt Data" style="text;html=1;align=center;verticalAlign=middle;whiteSpace=wrap;rounded=0;" vertex="1" parent="1">
          <mxGeometry x="1040" y="470" width="60" height="30" as="geometry" />
        </mxCell>
      </root>
    </mxGraphModel>
  </diagram>
</mxfile>
